<?xml version="1.0" encoding="utf-8"?>
<!-- Generator: Adobe Illustrator 27.3.1, SVG Export Plug-In . SVG Version: 6.00 Build 0)  -->
<svg version="1.1" xmlns="http://www.w3.org/2000/svg" xmlns:xlink="http://www.w3.org/1999/xlink" x="0px" y="0px"
	 viewBox="0 0 1920 1080" style="enable-background:new 0 0 1920 1080;" xml:space="preserve">
<style type="text/css">
	.st0{fill:#6BB445;}
	.st1{fill:#0C572D;}
	.st2{fill:#FFD234;}
	.st3{fill:#EF513F;}
	.st4{fill:#F79930;}
	.st5{fill:#57A345;}
	.st6{fill:#A05424;}
</style>
<g id="Layer_10">
</g>
<g id="Layer_9">
</g>
<g id="Layer_8">
</g>
<g id="Layer_7">
</g>
<g id="Layer_6">
</g>
<g id="Layer_5">
</g>
<g id="Layer_4">
	<g>
		<path class="st0" d="M969.16,541.59c-63.65-1.75-117.67-11.67-159.02-23.48c-5.72-1.64-11.34,2.87-10.97,8.82
			c1.52,24.63,4.76,75.8,6.51,98.3c0.59,7.61,0.97,11.51,1.93,23.78c1.45,18.32,1.38,18.73,1.78,21.53
			c1.43,9.99,3.37,23.66,12.44,35.99c10.55,14.34,25.29,20.45,32.41,22.25c10.35,2.63,20.87,4.62,31.46,6.05
			c7.65,1.04,15.31,2.22,23.03,2.39c5.01-27.26,9.93-54.53,14.87-81.79c-6.27-0.11-12.57,0.38-18.81-0.16
			c-3.08-0.76-6.35-3.08-6.44-6.56c-0.12-4.38,0.85-8.71,1.56-13.01c0.64-5.02,5.15-9.11,10.13-9.62
			c5.51-0.53,11.09-0.24,16.61,0.19c1.65,0.27,2.83-1.09,2.86-2.66c3.16-18.52,12.53-36.7,28.25-47.55
			c12.2-8.4,27.24-12.18,41.97-11.65c3.71,0.19,8.46-0.55,10.96,2.88c3.58,4.56,0.91,10.62,0.31,15.73
			c-0.51,5.04-2.33,11.18-7.75,12.84c-15.63,3.18-30.62,12.83-36.34,28.13c0,0-0.6,1.47-0.83,1.74c5.14,0.24,10.28,0.09,15.43,0.13
			c3.28,0.01,7.52,0.03,9.05,3.53c0.42,0.96,0.33,2.8-0.09,4.52c-1.19,5.06-2.78,11-4.55,15.86c-1.45,3.47-4.51,5.6-8.03,5.63
			c-5.91,0.18-11.84,0.14-17.75-0.01c-1.35,4.75-3.72,16.83-5.77,25.58c-4.37,18.65-7.72,37.52-11.57,56.28
			c6,0.25,14.48,0.46,24.66,0.22c11.47-0.27,24.93-0.64,41.87-3.49c14.21-2.39,23.53-4.3,35.49-9.66
			c8.07-3.61,15.92-8.18,22.07-14.63c11.59-10.71,18.55-25.46,22.85-40.43c4.3-12.79,7.91-25.8,11.57-38.78
			c5.85-21.55,14.87-58.56,22.01-89.58c1.4-6.1-3.94-11.59-10.08-10.39C1074.27,538.14,1025.38,543.14,969.16,541.59z
			 M1027.43,651.77c-15.2,8.29-31.47,2.9-35.11,1.59c-0.63-1.19,0.86-2.08,1.5-2.87c8.56-8.28,20.49-11.37,30.25-17.83
			c-7.92,3.03-16.52,3.94-24.17,7.67c-3.08,1.39-5.89,3.29-8.73,5.09c-0.09-8.33,5.11-15.8,11.57-20.63
			c6.85-5.12,12.34-2.11,27.51-6.8c12.53-3.88,15.66-7.79,17.84-6.03C1052.87,615.83,1046.33,641.46,1027.43,651.77z"/>
		<path class="st1" d="M1038.95,415.72c-2.06,1.29-3.86,2.58-5.48,3.75c-3.22,2.33-6.33,5.01-9.5,8.19
			c-0.53,0.53-1.05,1.07-1.56,1.61c-1.14-32.32-9.46-61.48-40.69-68.9c-10.95-1.85-21.17,1.18-31.24,9.29
			c-25.7,20.71-41.63,68.93-45.17,86.19c-2.63-3.25-5.91-5.41-10.01-5.61c-0.18-0.01-0.37-0.01-0.56-0.01
			c-2.31,0-4.39,0.62-6.25,1.7c4.52-20.87,20.62-71.32,51.06-95.84c14.08-11.34,29.37-15.66,45.42-12.84l0.47,0.1
			c23.64,5.51,39.76,20.68,47.93,45.09C1036.28,397.14,1038,406.44,1038.95,415.72z"/>
		<path class="st2" d="M1075.89,420.16c-0.53,1.03-0.85,2.12-0.95,3.27c0.9,2.8,1.67,6.05,2.04,9.72
			c0.98,9.66-1.21,17.89-3.52,23.62c-14.17,21.65-24.26,43.8-24.26,43.8c-3.07,6.73-6.96,15.61-11.19,26.3
			c-0.03,0.01-0.07,0.03-0.1,0.03c-0.1-0.96-0.18-1.94-0.26-2.94c-0.24-3.05-1.19-11.48-6.49-19.98
			c-9.42-15.13-25.61-19.32-30.35-20.27c0.27-0.86,0.57-1.8,0.89-2.79c0,0,9.21-27.75,28.46-47.14c3.67-3.68,6.57-5.93,8.42-7.27
			c3.51-2.53,7.46-5.39,13.23-7.4c4.71-1.65,6.47-1.26,9.72-3.47c0.63-0.43,2.43-1.45,5.68-6.06c4.43-6.31,8.32-12.98,13.05-19.08
			c0.3-0.38,0.87-1.24,1.89-2.1c0.97-0.82,4.35-3.68,8.4-2.47c3.04,0.91,5.36,3.8,5.52,6.64c0.13,2.31-1.76,4.41-5.55,8.52
			C1090.52,401.09,1079.63,412.92,1075.89,420.16z"/>
		<path class="st3" d="M951.49,532.16c-2.04-0.1-4.06-0.22-6.06-0.34c-34.92-2.15-65.52-6.67-91.21-11.92
			c0.37-15.8,6.1-31.36,14.94-36.71c6.44-3.89,13.89-4.11,13.89-4.11c9.29-0.27,15.96,4.2,18.19,5.83c-0.01-1.33-0.27-2.43-0.6-3.33
			c-2.9-7.7-15.15-8.61-15.9-8.66c0.3-0.9,4.83-14.25,10.15-13.99c5.97,0.29,9.82,17.5,10.15,19.03c0.69,3.24,0.95,5.97,1.05,7.8
			c1.71-0.73,20.31-8.42,33.41,1.38c7.54,5.64,9.92,14.6,10.82,17.97c0.22,0.82,0.41,1.65,0.57,2.51
			C952.01,513.5,951.87,520.43,951.49,532.16z"/>
		<path class="st4" d="M1037.76,531.5c-0.53,0.04-1.07,0.08-1.61,0.1c-15.3,1.04-30.89,1.56-46.57,1.56
			c-6.67,0-13.46-0.09-20.18-0.28c-6.09-0.17-12.06-0.41-17.91-0.72c-2.04-0.1-4.06-0.22-6.06-0.34c0.1-3.24,0.3-6.36,0.57-8.5
			c0.52-4.06,1.79-9.75,4.89-15.7c1.25-2.4,2.8-4.86,4.71-7.26c1.76-2.19,5.4-6.35,11.12-9.99c15.04-9.58,31.05-7.17,33.02-6.84
			c0.23,0.03,0.58,0.1,1.06,0.19c4.74,0.95,20.93,5.14,30.35,20.27c5.29,8.5,6.25,16.93,6.49,19.98c0.01,0.1,0.02,0.24,0.03,0.37
			c0.04,0.7,0.09,1.8,0.11,3.1C1037.81,528.67,1037.81,530.08,1037.76,531.5z"/>
		<path class="st5" d="M892.24,411.41c-6,14.66-10.06,28.56-12.25,38.68l-4.63,21.38c-3.2,0.76-7.03,2.06-10.69,4.28
			c-0.76,0.45-1.49,0.95-2.19,1.49c2.19-11.48,4.15-23.39,5.81-35.72c0.52-3.88,1-7.73,1.45-11.55
			c-5.77,18.74-11.54,37.47-17.3,56.21c-2.92-10.08-5.83-20.18-8.75-30.26c0.75-10,1.69-20.19,2.82-30.56
			c0.35-3.2,0.71-6.38,1.1-9.54c-4.34,9.34-6.54,19.48-10.73,28.89c-4.2-12.17-8.4-24.32-12.59-36.49c0.13,1.17,0.35,3.01,0.64,5.27
			c1.48,11.81,3.07,21.01,6.62,40.18c1.3,7.02,2.78,14.96,4.43,23.68c-5.76-3.1-11.94-6.76-18.37-11.08
			c-6.17-4.15-11.69-8.31-16.57-12.31c0.7,0.88,1.87,2.34,3.41,4.09c6.39,7.29,11.24,10.71,23.28,21.14
			c6.17,5.34,7.87,7.03,9.63,9.82c3.88,6.17,4.05,11.5,4.07,12.78c0.01,0.72-0.03,1.32-0.05,1.72c-2.27-0.92-4.52-1.92-6.62-3.19
			c-7.06-4.26-14.87-7.34-23.03-8.6c5.42,2.74,11.42,6.18,17.7,10.5c5.76,3.95,10.73,7.95,14.96,11.71c0.2,1.03,0.44,2.45,0.68,4.01
			c-17.19-3.8-31.93-7.86-44.01-11.63l-6.1-1.9c-0.01-0.01-0.02-0.03-0.03-0.03c-0.25-0.3-0.42-0.54-0.61-0.78
			c-1.23-1.65-7.86-10.59-5.86-21.26c0.35-1.88,1.14-4.72,3.14-7.9c-1.81-0.74-14.81-6.29-18.77-20.15
			c-3.49-12.24,1.31-26.61,11.64-33.04c4.21-2.61,8.48-3.39,11.46-3.61c-3.13-20.67,6.83-38.69,20.76-43.29
			c8.22-2.71,19.78-1.04,27.45,4.33c5.86,4.1,8.92,10.8,11.69,17.15c6.86-5.14,16.69-6.14,24.2-1.85
			C886.57,397.46,890.79,404.19,892.24,411.41z"/>
		<path class="st6" d="M1144.12,462.4c-6.05,20.15-14.74,39.39-24.58,57.94c-25.47,5.41-53.13,9.17-81.78,11.16
			c-0.53,0.04-1.07,0.08-1.61,0.1c0.55-1.42,1.09-2.8,1.63-4.16c0.08-0.19,0.15-0.38,0.23-0.57c4.23-10.69,8.13-19.57,11.19-26.3
			c0,0,10.09-22.15,24.26-43.8c8.88-13.57,19.37-26.93,29.97-34.52c0.7-0.5,1.46-1,1.46-1c6.26-4.17,16.72-9.93,27.4-8.06
			c2.25,0.39,6.99,1.29,10.65,5.16c2.6,2.74,3.61,6.03,4.32,9.12C1149.92,439.13,1147.24,451.11,1144.12,462.4z"/>
	</g>
</g>
<g id="Layer_3">
</g>
</svg>
