<?xml version="1.0" encoding="utf-8"?>
<!-- Generator: Adobe Illustrator 27.3.1, SVG Export Plug-In . SVG Version: 6.00 Build 0)  -->
<svg version="1.1" xmlns="http://www.w3.org/2000/svg" xmlns:xlink="http://www.w3.org/1999/xlink" x="0px" y="0px"
	 viewBox="0 0 1920 1080" style="enable-background:new 0 0 1920 1080;" xml:space="preserve">
<style type="text/css">
	.st0{fill:#6BB445;}
	.st1{fill:#0C572D;}
	.st2{fill:#FFD234;}
	.st3{fill:#EF513F;}
	.st4{fill:#F79930;}
	.st5{fill:#57A345;}
	.st6{fill:#A05424;}
	.st7{fill:#0A582D;}
	.st8{fill:#0A592E;}
	.st9{fill:#104623;}
</style>
<g id="Layer_10">
	<path class="st0" d="M969.34,436.97c-63.65-1.75-117.67-11.67-159.02-23.48c-5.72-1.64-11.34,2.87-10.97,8.82
		c1.52,24.63,4.76,75.8,6.51,98.3c0.59,7.61,0.97,11.51,1.93,23.78c1.45,18.32,1.38,18.73,1.78,21.53
		c1.43,9.99,3.37,23.66,12.44,35.99c10.55,14.34,25.29,20.45,32.41,22.25c10.35,2.63,20.87,4.62,31.46,6.05
		c7.65,1.04,15.31,2.22,23.03,2.39c5.01-27.26,9.93-54.53,14.87-81.79c-6.27-0.11-12.57,0.38-18.81-0.16
		c-3.08-0.76-6.35-3.08-6.44-6.56c-0.12-4.38,0.85-8.71,1.56-13.01c0.64-5.02,5.15-9.11,10.13-9.62c5.51-0.53,11.09-0.24,16.61,0.19
		c1.65,0.27,2.83-1.09,2.86-2.66c3.16-18.52,12.53-36.7,28.25-47.55c12.2-8.4,27.24-12.18,41.97-11.65
		c3.71,0.19,8.46-0.55,10.96,2.88c3.58,4.56,0.91,10.62,0.31,15.73c-0.51,5.04-2.33,11.18-7.75,12.84
		c-15.63,3.18-30.62,12.83-36.34,28.13c0,0-0.6,1.47-0.83,1.74c5.14,0.24,10.28,0.09,15.43,0.13c3.28,0.01,7.52,0.03,9.05,3.53
		c0.42,0.96,0.33,2.8-0.09,4.52c-1.19,5.06-2.78,11-4.55,15.86c-1.45,3.47-4.51,5.6-8.03,5.63c-5.91,0.18-11.84,0.14-17.75-0.01
		c-1.35,4.75-3.72,16.83-5.77,25.58c-4.37,18.65-7.72,37.52-11.57,56.28c6,0.25,14.48,0.46,24.66,0.22
		c11.47-0.27,24.93-0.64,41.87-3.49c14.21-2.39,23.53-4.3,35.49-9.66c8.07-3.61,15.92-8.18,22.07-14.63
		c11.59-10.71,18.55-25.46,22.85-40.43c4.3-12.79,7.91-25.8,11.57-38.78c5.85-21.55,14.87-58.56,22.01-89.58
		c1.4-6.1-3.94-11.59-10.08-10.39C1074.46,433.52,1025.57,438.52,969.34,436.97z M1027.62,547.15c-15.2,8.29-31.47,2.9-35.11,1.59
		c-0.63-1.19,0.86-2.08,1.5-2.87c8.56-8.28,20.49-11.37,30.25-17.83c-7.92,3.03-16.52,3.94-24.17,7.67
		c-3.08,1.39-5.89,3.29-8.73,5.09c-0.09-8.33,5.11-15.8,11.57-20.63c6.85-5.12,12.34-2.11,27.51-6.8
		c12.53-3.88,15.66-7.79,17.84-6.03C1053.06,511.21,1046.52,536.84,1027.62,547.15z"/>
</g>
<g id="Layer_9">
	<path class="st1" d="M1039.13,311.09c-2.06,1.29-3.86,2.58-5.48,3.75c-3.22,2.33-6.33,5.01-9.5,8.19
		c-0.53,0.53-1.05,1.07-1.56,1.61c-1.14-32.32-9.46-61.48-40.69-68.9c-10.95-1.85-21.17,1.18-31.24,9.29
		c-25.7,20.71-41.63,68.93-45.17,86.19c-2.63-3.25-5.91-5.41-10.01-5.61c-0.18-0.01-0.37-0.01-0.56-0.01c-2.31,0-4.39,0.62-6.25,1.7
		c4.52-20.87,20.62-71.32,51.06-95.84c14.08-11.34,29.37-15.66,45.42-12.84l0.47,0.1c23.64,5.51,39.76,20.68,47.93,45.09
		C1036.47,292.51,1038.19,301.81,1039.13,311.09z"/>
</g>
<g id="Layer_8">
	<path class="st2" d="M1076.08,315.53c-0.53,1.03-0.85,2.12-0.95,3.27c0.9,2.8,1.67,6.05,2.04,9.72c0.98,9.66-1.21,17.89-3.52,23.62
		c-14.17,21.65-24.26,43.8-24.26,43.8c-3.07,6.73-6.96,15.61-11.19,26.3c-0.03,0.01-0.07,0.03-0.1,0.03
		c-0.1-0.96-0.18-1.94-0.26-2.94c-0.24-3.05-1.19-11.48-6.49-19.98c-9.42-15.13-25.61-19.32-30.35-20.27
		c0.27-0.86,0.57-1.8,0.89-2.79c0,0,9.21-27.75,28.46-47.14c3.67-3.68,6.57-5.93,8.42-7.27c3.51-2.53,7.46-5.39,13.23-7.4
		c4.71-1.65,6.47-1.26,9.72-3.47c0.63-0.43,2.43-1.45,5.68-6.06c4.43-6.31,8.32-12.98,13.05-19.08c0.3-0.38,0.87-1.24,1.89-2.1
		c0.97-0.82,4.35-3.68,8.4-2.47c3.04,0.91,5.36,3.8,5.52,6.64c0.13,2.31-1.76,4.41-5.55,8.52
		C1090.71,296.47,1079.82,308.29,1076.08,315.53z"/>
</g>
<g id="Layer_7">
	<path class="st3" d="M951.67,427.53c-2.04-0.1-4.06-0.22-6.06-0.34c-34.92-2.15-65.52-6.67-91.21-11.92
		c0.37-15.8,6.1-31.36,14.94-36.71c6.44-3.89,13.89-4.11,13.89-4.11c9.29-0.27,15.96,4.2,18.19,5.83c-0.01-1.33-0.27-2.43-0.6-3.33
		c-2.9-7.7-15.15-8.61-15.9-8.66c0.3-0.9,4.83-14.25,10.15-13.99c5.97,0.29,9.82,17.5,10.15,19.03c0.69,3.24,0.95,5.97,1.05,7.8
		c1.71-0.73,20.31-8.42,33.41,1.38c7.54,5.64,9.92,14.6,10.82,17.97c0.22,0.82,0.41,1.65,0.57,2.51
		C952.2,408.87,952.06,415.8,951.67,427.53z"/>
</g>
<g id="Layer_6">
	<path class="st4" d="M1037.95,426.87c-0.53,0.04-1.07,0.08-1.61,0.1c-15.3,1.04-30.89,1.56-46.57,1.56
		c-6.67,0-13.46-0.09-20.18-0.28c-6.09-0.17-12.06-0.41-17.91-0.72c-2.04-0.1-4.06-0.22-6.06-0.34c0.1-3.24,0.3-6.36,0.57-8.5
		c0.52-4.06,1.79-9.75,4.89-15.7c1.25-2.4,2.8-4.86,4.71-7.26c1.76-2.19,5.4-6.35,11.12-9.99c15.04-9.58,31.05-7.17,33.02-6.84
		c0.23,0.03,0.58,0.1,1.06,0.19c4.74,0.95,20.93,5.14,30.35,20.27c5.29,8.5,6.25,16.93,6.49,19.98c0.01,0.1,0.02,0.24,0.03,0.37
		c0.04,0.7,0.09,1.8,0.11,3.1C1037.99,424.04,1037.99,425.45,1037.95,426.87z"/>
</g>
<g id="Layer_5">
	<path class="st5" d="M892.43,306.78c-6,14.66-10.06,28.56-12.25,38.68l-4.63,21.38c-3.2,0.76-7.03,2.06-10.69,4.28
		c-0.76,0.45-1.49,0.95-2.19,1.49c2.19-11.48,4.15-23.39,5.81-35.72c0.52-3.88,1-7.73,1.45-11.55
		c-5.77,18.74-11.54,37.47-17.3,56.21c-2.92-10.08-5.83-20.18-8.75-30.26c0.75-10,1.69-20.19,2.82-30.56
		c0.35-3.2,0.71-6.38,1.1-9.54c-4.34,9.34-6.54,19.48-10.73,28.89c-4.2-12.17-8.4-24.32-12.59-36.49c0.13,1.17,0.35,3.01,0.64,5.27
		c1.48,11.81,3.07,21.01,6.62,40.18c1.3,7.02,2.78,14.96,4.43,23.68c-5.76-3.1-11.94-6.76-18.37-11.08
		c-6.17-4.15-11.69-8.31-16.57-12.31c0.7,0.88,1.87,2.34,3.41,4.09c6.39,7.29,11.24,10.71,23.28,21.14
		c6.17,5.34,7.87,7.03,9.63,9.82c3.88,6.17,4.05,11.5,4.07,12.78c0.01,0.72-0.03,1.32-0.05,1.72c-2.27-0.92-4.52-1.92-6.62-3.19
		c-7.06-4.26-14.87-7.34-23.03-8.6c5.42,2.74,11.42,6.18,17.7,10.5c5.76,3.95,10.73,7.95,14.96,11.71c0.2,1.03,0.44,2.45,0.68,4.01
		c-17.19-3.8-31.93-7.86-44.01-11.63l-6.1-1.9c-0.01-0.01-0.02-0.03-0.03-0.03c-0.25-0.3-0.42-0.54-0.61-0.78
		c-1.23-1.65-7.86-10.59-5.86-21.26c0.35-1.88,1.14-4.72,3.14-7.9c-1.81-0.74-14.81-6.29-18.77-20.15
		c-3.49-12.24,1.31-26.61,11.64-33.04c4.21-2.61,8.48-3.39,11.46-3.61c-3.13-20.67,6.83-38.69,20.76-43.29
		c8.22-2.71,19.78-1.04,27.45,4.33c5.86,4.1,8.92,10.8,11.69,17.15c6.86-5.14,16.69-6.14,24.2-1.85
		C886.76,292.84,890.97,299.57,892.43,306.78z"/>
</g>
<g id="Layer_4">
	<path class="st6" d="M1144.31,357.78c-6.05,20.15-14.74,39.39-24.58,57.94c-25.47,5.41-53.13,9.17-81.78,11.16
		c-0.53,0.04-1.07,0.08-1.61,0.1c0.55-1.42,1.09-2.8,1.63-4.16c0.08-0.19,0.15-0.38,0.23-0.57c4.23-10.69,8.13-19.57,11.19-26.3
		c0,0,10.09-22.15,24.26-43.8c8.88-13.57,19.37-26.93,29.97-34.52c0.7-0.5,1.46-1,1.46-1c6.26-4.17,16.72-9.93,27.4-8.06
		c2.25,0.39,6.99,1.29,10.65,5.16c2.6,2.74,3.61,6.03,4.32,9.12C1150.11,334.51,1147.43,346.48,1144.31,357.78z"/>
</g>
<g id="Layer_3">
	<g>
		<g>
			<path class="st0" d="M1124.4,667.72c3.41-4.07,9.1-4.04,13.94-3.87c4.91,0.32,10.5-1.16,14.62,2.36
				c4.32,3.56,3.43,9.78,2.76,14.69c-3.39,27.33-6.88,54.65-10.07,81.99c6.41-5.08,12-11.14,17.97-16.73
				c6.57-6.81,13.8-12.91,20.42-19.66c4.17-3.95,8.08-9.29,14.34-9.61c8.44-0.16,16.89-0.24,25.32-0.01
				c3.96-0.17,7.29,5.12,4.27,8.23c-4.7,5.46-10.64,9.68-15.62,14.87c-10.43,9.83-21.2,19.32-31.33,29.45
				c13.54,20.16,26.95,40.42,40.29,60.72c2.39,3.08,0.73,7.45-2.73,8.85c-9.04,0.14-18.07,0.1-27.11,0.05
				c-4.26,0.15-7.95-2.66-9.95-6.25c-8.99-14.44-18.25-28.7-27.27-43.11c-2.35,0.74-3.89,2.76-5.71,4.28
				c-2.54,2.33-5.44,4.32-7.61,7.02c-1.25,9.29-2.31,18.63-3.49,27.93c-0.48,3.41-2.32,6.66-5.32,8.46
				c-4.13,2.63-9.22,1.37-13.82,1.71c-4.47,0.21-10.01,0.98-13.19-2.93c-2.82-2.54-2.26-6.58-2.08-9.97
				c2.67-22.94,5.53-45.85,8.24-68.78c2.79-24.77,6.23-49.46,8.91-74.23C1120.96,677.93,1120.33,671.82,1124.4,667.72z"/>
			<path class="st0" d="M1377.79,679.41c-12.65,2.24-15.1-3.81-26.92-3.26c-18.34,0.85-31.52,16.77-34.44,20.86
				c-3.66,5.09-6.24,11.18-6.24,11.18c-0.91,2.15-1.54,3.99-1.94,5.24c-6.77-0.91-18.75-1.58-32.33,3.03
				c-30.55,10.38-42.1,38.35-43.2,41.15c-1.89,4.8-11.96,34.08,3.98,59.91c5.49,8.89,14.17,15.44,23.67,19.55
				c28.75,11.66,64.98,2.08,83.27-23.26c12.54-16.68,16.66-39.2,11.67-59.37c-3.79-13.43-12.38-26.47-25.4-32.34
				c2.48,0.27,5.95,0.51,10.07,0.33c3.44-0.15,11.9-0.58,20.47-4.15c0,0,19.01-7.91,28.18-33.11c0.57-1.58,1.3-3.97,0.16-5.48
				C1386.93,677.26,1381.43,678.76,1377.79,679.41z M1320.07,788.1c-3.11,10.55-11.63,19.59-22.25,22.71
				c-6.91,1.81-14.57,1.65-20.95-1.79c-8.06-3.85-13.19-12.32-14.05-21.08c-0.68-7.38,0.13-14.98,2.78-21.93
				c3.18-7.96,9.15-14.91,17-18.55c5.68-3.01,12.28-3.2,18.54-2.65c8.03,1.14,15.21,6.63,18.44,14.06
				C1323.44,768.12,1323.17,778.71,1320.07,788.1z M1343.52,697.78c-7.39,2.57-12.24,6.55-15.73,9.47
				c-3.98,3.32-6.84,6.56-8.71,8.88c-0.73-0.28-1.51-0.55-2.32-0.8c-0.85-0.27-1.67-0.51-2.46-0.71
				c2.31-3.46,7.52-10.25,16.77-14.95c11.84-6.02,22.92-4.88,26.94-4.27C1351.58,695.38,1346.61,696.7,1343.52,697.78z"/>
		</g>
		<g>
			<path class="st7" d="M1086.23,766.98c-2.38,20.32-4.97,40.62-7.11,60.97c-0.44,4.66-3.5,9.09-7.97,10.7
				c-4.82,1.05-9.78,0.09-14.65,0.68c-4.74,0.55-10.17-1.72-11.68-6.54c-0.85-4.21-0.02-8.51,0.54-12.7
				c1.45-12.78,3.06-25.54,4.59-38.31c0.74-9.27,3.56-18.96-0.15-27.97c-2.85-5.52-8.83-9.27-15.08-9.12
				c-5.31-0.25-10.78,0.66-15.4,3.41c-7.72,4.37-12.86,12.7-13.83,21.47c-2.47,19.9-5.01,39.79-7.25,59.72
				c-0.84,5.44-5.91,9.81-11.42,9.83c-4.97-0.03-9.95,0.1-14.92-0.1c-4.94-0.24-8.99-5.16-8.26-10.07
				c5.41-48.35,11.77-96.61,17.04-144.97l-0.06-1.52c1.64-4.79,5.33-9.24,10.62-9.88c5.47-0.43,11.02-0.45,16.49,0.01
				c3.88,0.46,6.78,3.55,8.06,7.1c0.33,3.57-0.44,7.1-0.78,10.64c-1.83,13.44-3.45,26.91-4.82,40.41c2.41-1.79,4.48-3.95,6.73-5.91
				c6.31-5.28,14.1-8.59,22.09-10.32c4.89-0.58,9.82-0.48,14.73-0.25c11.11,0.87,21.42,7.3,27.36,16.69
				C1086.99,741.96,1087.58,754.82,1086.23,766.98z"/>
			<path class="st7" d="M670.26,733.17c6.17-10.28,17.09-17.73,29.1-18.92c5.03-0.34,11.29-0.57,14.26,4.41
				c0.26,1.05,0.56,2.09,0.87,3.14c-0.98,6.5-0.14,13.62-3.53,19.51c-2.47,4.28-7.79,5.6-12.41,5.24
				c-11.17-0.27-22.15,5.95-27.65,15.67c-3.68,5.9-4.39,12.96-5.09,19.73c-1.78,13.57-3.2,27.19-4.81,40.78
				c-0.46,3-0.16,6.16-1.41,9c-1.53,3.65-4.87,6.83-8.9,7.32c-5.21,1.06-10.49-0.16-15.75,0.06c-3.29,0.15-6.36-1.8-8.11-4.49
				c-1.57-2.52-1.25-5.61-1.04-8.42c3.38-29.42,6.86-58.82,9.95-88.26c0.7-4.39,0.46-8.91,1.68-13.21
				c2.02-5.18,7.67-8.53,13.19-7.92c5.82,0.54,13.05-1.7,17.54,3.18C671.82,723.42,669.87,728.78,670.26,733.17z"/>
			<path class="st7" d="M884.69,717.19c19.03-6.02,40.61-4.1,57.88,6.09c3.48,2.52,8.06,5.05,8.72,9.73
				c0.36,2.51-0.75,4.94-2.13,6.97c-2.38,3.54-5.22,6.79-8.44,9.6c-2.04,1.9-5.08,1.9-7.65,1.41c-2.94-1.22-5.27-3.53-8.03-5.08
				c-7.8-4.5-17.18-6.64-26.1-4.92c-4.28,0.86-8.48,3.44-10.04,7.69c-0.3,2.18-0.59,4.7,0.72,6.64c1.55,2.74,4.66,3.93,7.38,5.16
				c13.26,5.12,27.99,7.28,39.71,15.84c7.57,5.04,12.31,13.86,12.7,22.9c0.21,8.11-1.53,16.56-6.43,23.18
				c-7.56,11.08-20.81,16.58-33.64,18.61c-20.08,2.98-41.98-0.6-58.32-13.22c-4.24-2.96-5.45-9.24-2.45-13.48
				c3.41-4.74,7.12-9.81,12.78-11.98c2.82-0.3,5.64,0.45,7.82,2.32c9.01,7.23,20.52,11.78,32.2,10.89
				c5.22-0.36,11.33-1.79,13.93-6.87c1.67-2.53,1.11-5.58,0.37-8.32c-1.79-1.93-3.65-3.94-6.18-4.87
				c-11.94-4.92-24.96-6.92-36.4-13.09c-6.35-3.51-12.39-8.5-15.08-15.43c-3.64-8.64-2.85-18.62,0.58-27.2
				c4.22-9.94,13.14-17.27,22.96-21.31C882.59,718.01,883.63,717.61,884.69,717.19z"/>
			<path class="st8" d="M748.53,722.87c10.68-6.21,23.08-9.03,35.36-9.21c5.53,0.63,11.18,0.56,16.55,2.24
				c10.07,2.69,19.22,8.43,26.04,16.31c7.22,9.12,11.3,20.56,11.78,32.16c0.05,5.5,0.37,11.22-1.69,16.44
				c-1.77,4.2-6.36,6.67-10.81,6.61c-25.71,0.15-51.42-0.1-77.12,0.1c0.41,10.18,6.91,19.91,16.4,23.77
				c10.71,4.57,23.06,3.58,33.69-0.74c5.93-2.16,10.53-8.48,17.36-7.4c4.89,1,7.41,5.83,10.09,9.55c3.09,3.95,2.32,10.14-1.68,13.2
				c-8.68,7.86-20.09,12.15-31.42,14.52c-14.69,2.79-30.3,2.04-44.27-3.54c-12.64-4.82-23.28-14.68-28.82-27.05
				c-7.91-17.97-6.51-39.08,1.31-56.84c0.34-0.68,0.68-1.35,1.04-2.01C728.06,739.31,737.17,729.28,748.53,722.87z M753.53,757.78
				c-0.92,2.06-1.64,4.22-2.24,6.39c5.63,0.57,11.28-0.1,16.93,0.1c12.6-0.1,25.2,0.18,37.8-0.12c-0.03-4.09-0.84-8.21-2.8-11.83
				c-3.09-6.51-10.01-10.16-16.76-11.7c-4.07-0.23-8.2-0.51-12.18,0.56C765.23,743.14,757.78,749.71,753.53,757.78z"/>
			<path class="st9" d="M626.65,661.17c-1.52-3.47-5.53-5.04-9.09-5.2c-4.94-0.11-9.89-0.17-14.81,0.33
				c-4.74,0.56-9.45,1.32-14.07,2.53c-2.99,1.05-5.95,2.18-8.85,3.47c-5.15,2.75-9.98,6.16-14.07,10.34
				c-7.91,8.94-12.31,20.67-13.15,32.51c-0.51,3.67-0.45,7.46-1.65,11.01c-3.27,0.69-6.61,0.51-9.89,0.91
				c-4.42,1.15-8.39,4.77-9,9.43c-0.61,5.77-2.73,12.5,1.66,17.36c4.06,2.92,9.21,1.69,13.79,2.9c0.07,6.2-1.18,12.31-1.72,18.47
				c-2.21,20.61-4.7,41.21-6.99,61.81c-0.84,4.6,1.16,9.44,5.45,11.52c4.36,1,8.87,0.36,13.29,0.68c4.23,0.41,8.9-0.06,12.27-2.9
				c3.48-3.27,4.31-8.19,4.6-12.72c3.04-25.61,5.43-51.31,8.95-76.85c8.71-1.84,17.69-0.21,26.5-1.06c4.72-0.38,8.47-4.64,9.54-9.07
				c0.28-3.54,0.89-7.05,1.05-10.59c0.28-4.42-3.07-9.2-7.76-9.21c-6.78-0.12-13.56-0.05-20.33-0.04c-1.56,0.01-3.06-0.48-4.55-0.86
				c-0.22-0.49-0.65-1.45-0.87-1.93c0.73-5.43,0.54-11.13,3-16.15c2.4-5.84,8.56-9.23,14.59-10.07c5.72-1.16,12.34,1.14,17.29-2.83
				c4.71-2.92,5.2-8.88,5.6-13.86C627.48,667.8,628.23,664.22,626.65,661.17z"/>
		</g>
	</g>
</g>
</svg>
