<?xml version="1.0" encoding="utf-8"?>
<!-- Generator: Adobe Illustrator 27.3.1, SVG Export Plug-In . SVG Version: 6.00 Build 0)  -->
<svg version="1.1" id="Layer_1" xmlns="http://www.w3.org/2000/svg" xmlns:xlink="http://www.w3.org/1999/xlink" x="0px" y="0px"
	 viewBox="0 0 512 512" style="enable-background:new 0 0 512 512;" xml:space="preserve">
<style type="text/css">
	.st0{fill:#6BB445;}
</style>
<g>
	<path class="st0" d="M376.02,258.22c-34.12,18.61-70.65,6.51-78.82,3.57c-1.41-2.67,1.93-4.67,3.37-6.44
		c19.22-18.59,46-25.52,67.91-40.03c-17.78,6.8-37.09,8.85-54.26,17.22c-6.91,3.12-13.22,7.39-19.6,11.43
		c-0.2-18.7,11.47-35.47,25.97-46.31c15.38-11.49,27.7-4.74,61.76-15.27c28.13-8.71,35.16-17.49,40.05-13.54
		C433.13,177.54,418.45,235.08,376.02,258.22z"/>
	<path class="st0" d="M339.14,103.88c-1.14,11.31-5.23,25.1-17.4,28.82c-35.09,7.14-68.74,28.8-81.58,63.15c0,0-1.35,3.3-1.86,3.91
		c11.54,0.54,23.08,0.2,34.64,0.29c7.36,0.02,16.88,0.07,20.32,7.92c0.94,2.16,0.74,6.29-0.2,10.15
		c-2.67,11.36-6.24,24.69-10.21,35.6c-3.26,7.79-10.12,12.57-18.03,12.64c-13.27,0.4-26.58,0.31-39.85-0.02
		c-3.03,10.66-8.35,37.78-12.95,57.43c-8.72,37.18-15.61,74.76-23.11,112.2c-1.63,8.15-8.78,14.03-17.1,14.03h-41.34
		c-10.88,0-19.1-9.86-17.14-20.57c9.95-54.33,19.76-108.68,29.61-163c-14.08-0.25-28.22,0.85-42.23-0.36
		c-6.91-1.71-14.26-6.91-14.46-14.73c-0.27-9.83,1.91-19.55,3.5-29.21c1.44-11.27,11.56-20.45,22.74-21.6
		c12.37-1.19,24.9-0.54,37.29,0.43c3.7,0.61,6.35-2.45,6.42-5.97c7.09-41.58,28.13-82.39,63.42-106.75
		c20.27-14.56,54.04-23.05,87.11-21.86c8.33,0.43,18.99-1.23,24.6,6.47C346.48,78.81,340.48,92.41,339.14,103.88z"/>
</g>
</svg>